<mxfile host="65bd71144e">
    <diagram id="cenVSU4W8u6wRUcEzjMz" name="Page-1">
        <mxGraphModel dx="2496" dy="1129" grid="1" gridSize="10" guides="1" tooltips="1" connect="1" arrows="1" fold="1" page="1" pageScale="1" pageWidth="827" pageHeight="1169" math="0" shadow="0">
            <root>
                <mxCell id="0"/>
                <mxCell id="1" parent="0"/>
                <mxCell id="19" value="" style="group" parent="1" vertex="1" connectable="0">
                    <mxGeometry x="246" y="499" width="1299" height="86" as="geometry"/>
                </mxCell>
                <mxCell id="4" value="" style="rounded=0;whiteSpace=wrap;html=1;fillColor=#f5f5f5;fontColor=#333333;strokeColor=#666666;strokeWidth=2;" parent="19" vertex="1">
                    <mxGeometry x="9" y="26" width="1290" height="60" as="geometry"/>
                </mxCell>
                <mxCell id="5" value="" style="endArrow=none;html=1;strokeWidth=2;" parent="19" edge="1">
                    <mxGeometry width="50" height="50" relative="1" as="geometry">
                        <mxPoint x="269" y="86" as="sourcePoint"/>
                        <mxPoint x="269" y="11" as="targetPoint"/>
                    </mxGeometry>
                </mxCell>
                <mxCell id="6" value="" style="endArrow=none;html=1;strokeWidth=2;" parent="19" edge="1">
                    <mxGeometry width="50" height="50" relative="1" as="geometry">
                        <mxPoint x="319" y="86" as="sourcePoint"/>
                        <mxPoint x="319" y="11" as="targetPoint"/>
                    </mxGeometry>
                </mxCell>
                <mxCell id="7" value="" style="endArrow=none;html=1;strokeWidth=2;" parent="19" edge="1">
                    <mxGeometry width="50" height="50" relative="1" as="geometry">
                        <mxPoint x="549" y="86" as="sourcePoint"/>
                        <mxPoint x="549" y="11" as="targetPoint"/>
                    </mxGeometry>
                </mxCell>
                <mxCell id="9" value="" style="rounded=0;whiteSpace=wrap;html=1;strokeColor=#d79b00;fillColor=#ffe6cc;rotation=0;" parent="19" vertex="1">
                    <mxGeometry x="550" y="27" width="748" height="58" as="geometry"/>
                </mxCell>
                <mxCell id="8" value="&lt;font style=&quot;font-size: 27px;&quot;&gt;Address&lt;/font&gt;" style="text;html=1;align=center;verticalAlign=middle;whiteSpace=wrap;rounded=0;" parent="19" vertex="1">
                    <mxGeometry x="869" y="41" width="110" height="30" as="geometry"/>
                </mxCell>
                <mxCell id="11" value="" style="rounded=0;whiteSpace=wrap;html=1;strokeColor=#d79b00;fillColor=#ffe6cc;rotation=0;" parent="19" vertex="1">
                    <mxGeometry x="270" y="27" width="48" height="58" as="geometry"/>
                </mxCell>
                <mxCell id="12" value="&lt;font&gt;VA_SIZE - 1&lt;/font&gt;" style="text;html=1;align=center;verticalAlign=middle;whiteSpace=wrap;rounded=0;fontSize=16;" parent="19" vertex="1">
                    <mxGeometry x="519" width="159" height="30" as="geometry"/>
                </mxCell>
                <mxCell id="13" value="&lt;font&gt;VA_SIZE&lt;/font&gt;" style="text;html=1;align=center;verticalAlign=middle;whiteSpace=wrap;rounded=0;fontSize=16;" parent="19" vertex="1">
                    <mxGeometry x="429" width="159" height="30" as="geometry"/>
                </mxCell>
                <mxCell id="14" value="&lt;font&gt;54&lt;/font&gt;" style="text;html=1;align=center;verticalAlign=middle;whiteSpace=wrap;rounded=0;fontSize=16;" parent="19" vertex="1">
                    <mxGeometry x="318" width="40" height="30" as="geometry"/>
                </mxCell>
                <mxCell id="16" value="&lt;font&gt;55&lt;/font&gt;" style="text;html=1;align=center;verticalAlign=middle;whiteSpace=wrap;rounded=0;fontSize=16;" parent="19" vertex="1">
                    <mxGeometry x="274" width="40" height="30" as="geometry"/>
                </mxCell>
                <mxCell id="17" value="&lt;font&gt;56&lt;/font&gt;" style="text;html=1;align=center;verticalAlign=middle;whiteSpace=wrap;rounded=0;fontSize=16;" parent="19" vertex="1">
                    <mxGeometry x="230" width="40" height="30" as="geometry"/>
                </mxCell>
                <mxCell id="18" value="&lt;font&gt;63&lt;/font&gt;" style="text;html=1;align=center;verticalAlign=middle;whiteSpace=wrap;rounded=0;fontSize=16;" parent="19" vertex="1">
                    <mxGeometry width="40" height="30" as="geometry"/>
                </mxCell>
                <mxCell id="34" value="&lt;font style=&quot;font-size: 27px;&quot;&gt;Reserved&lt;/font&gt;" style="text;html=1;align=center;verticalAlign=middle;whiteSpace=wrap;rounded=0;" parent="19" vertex="1">
                    <mxGeometry x="79" y="41" width="110" height="30" as="geometry"/>
                </mxCell>
                <mxCell id="35" value="&lt;font style=&quot;font-size: 27px;&quot;&gt;Reserved&lt;/font&gt;" style="text;html=1;align=center;verticalAlign=middle;whiteSpace=wrap;rounded=0;" parent="19" vertex="1">
                    <mxGeometry x="379" y="41" width="110" height="30" as="geometry"/>
                </mxCell>
                <mxCell id="20" value="" style="group" parent="1" vertex="1" connectable="0">
                    <mxGeometry x="245" y="610" width="1299" height="86" as="geometry"/>
                </mxCell>
                <mxCell id="21" value="" style="rounded=0;whiteSpace=wrap;html=1;fillColor=#f5f5f5;fontColor=#333333;strokeColor=#666666;strokeWidth=2;" parent="20" vertex="1">
                    <mxGeometry x="9" y="26" width="1290" height="60" as="geometry"/>
                </mxCell>
                <mxCell id="22" value="" style="endArrow=none;html=1;strokeWidth=2;" parent="20" edge="1">
                    <mxGeometry width="50" height="50" relative="1" as="geometry">
                        <mxPoint x="269" y="86" as="sourcePoint"/>
                        <mxPoint x="269" y="11" as="targetPoint"/>
                    </mxGeometry>
                </mxCell>
                <mxCell id="23" value="" style="endArrow=none;html=1;strokeWidth=2;" parent="20" edge="1">
                    <mxGeometry width="50" height="50" relative="1" as="geometry">
                        <mxPoint x="319" y="86" as="sourcePoint"/>
                        <mxPoint x="319" y="11" as="targetPoint"/>
                    </mxGeometry>
                </mxCell>
                <mxCell id="24" value="" style="endArrow=none;html=1;strokeWidth=2;" parent="20" edge="1">
                    <mxGeometry width="50" height="50" relative="1" as="geometry">
                        <mxPoint x="549" y="86" as="sourcePoint"/>
                        <mxPoint x="549" y="11" as="targetPoint"/>
                    </mxGeometry>
                </mxCell>
                <mxCell id="25" value="" style="rounded=0;whiteSpace=wrap;html=1;strokeColor=#d79b00;fillColor=#ffe6cc;rotation=0;" parent="20" vertex="1">
                    <mxGeometry x="550" y="27" width="748" height="58" as="geometry"/>
                </mxCell>
                <mxCell id="26" value="&lt;font style=&quot;font-size: 27px;&quot;&gt;Address&lt;/font&gt;" style="text;html=1;align=center;verticalAlign=middle;whiteSpace=wrap;rounded=0;" parent="20" vertex="1">
                    <mxGeometry x="869" y="41" width="110" height="30" as="geometry"/>
                </mxCell>
                <mxCell id="27" value="" style="rounded=0;whiteSpace=wrap;html=1;strokeColor=#d79b00;fillColor=#ffe6cc;rotation=0;" parent="20" vertex="1">
                    <mxGeometry x="270" y="27" width="48" height="58" as="geometry"/>
                </mxCell>
                <mxCell id="28" value="&lt;font&gt;VA_SIZE - 1&lt;/font&gt;" style="text;html=1;align=center;verticalAlign=middle;whiteSpace=wrap;rounded=0;fontSize=16;" parent="20" vertex="1">
                    <mxGeometry x="519" width="159" height="30" as="geometry"/>
                </mxCell>
                <mxCell id="29" value="&lt;font&gt;VA_SIZE&lt;/font&gt;" style="text;html=1;align=center;verticalAlign=middle;whiteSpace=wrap;rounded=0;fontSize=16;" parent="20" vertex="1">
                    <mxGeometry x="429" width="159" height="30" as="geometry"/>
                </mxCell>
                <mxCell id="30" value="&lt;font&gt;54&lt;/font&gt;" style="text;html=1;align=center;verticalAlign=middle;whiteSpace=wrap;rounded=0;fontSize=16;" parent="20" vertex="1">
                    <mxGeometry x="318" width="40" height="30" as="geometry"/>
                </mxCell>
                <mxCell id="31" value="&lt;font&gt;55&lt;/font&gt;" style="text;html=1;align=center;verticalAlign=middle;whiteSpace=wrap;rounded=0;fontSize=16;" parent="20" vertex="1">
                    <mxGeometry x="274" width="40" height="30" as="geometry"/>
                </mxCell>
                <mxCell id="32" value="&lt;font&gt;56&lt;/font&gt;" style="text;html=1;align=center;verticalAlign=middle;whiteSpace=wrap;rounded=0;fontSize=16;" parent="20" vertex="1">
                    <mxGeometry x="230" width="40" height="30" as="geometry"/>
                </mxCell>
                <mxCell id="33" value="&lt;font&gt;63&lt;/font&gt;" style="text;html=1;align=center;verticalAlign=middle;whiteSpace=wrap;rounded=0;fontSize=16;" parent="20" vertex="1">
                    <mxGeometry width="40" height="30" as="geometry"/>
                </mxCell>
                <mxCell id="36" value="&lt;font style=&quot;font-size: 27px;&quot;&gt;PAC&lt;/font&gt;" style="text;html=1;align=center;verticalAlign=middle;whiteSpace=wrap;rounded=0;" parent="20" vertex="1">
                    <mxGeometry x="80" y="41" width="110" height="30" as="geometry"/>
                </mxCell>
                <mxCell id="37" value="&lt;font style=&quot;font-size: 27px;&quot;&gt;PAC&lt;/font&gt;" style="text;html=1;align=center;verticalAlign=middle;whiteSpace=wrap;rounded=0;" parent="20" vertex="1">
                    <mxGeometry x="380" y="41" width="110" height="30" as="geometry"/>
                </mxCell>
                <mxCell id="48" value="" style="curved=1;endArrow=classic;html=1;edgeStyle=orthogonalEdgeStyle;exitX=0;exitY=0.5;exitDx=0;exitDy=0;entryX=0;entryY=0.5;entryDx=0;entryDy=0;strokeWidth=6;" parent="1" source="4" target="21" edge="1">
                    <mxGeometry width="50" height="50" relative="1" as="geometry">
                        <mxPoint x="185" y="710" as="sourcePoint"/>
                        <mxPoint x="95" y="620" as="targetPoint"/>
                        <Array as="points">
                            <mxPoint x="185" y="555"/>
                            <mxPoint x="185" y="666"/>
                        </Array>
                    </mxGeometry>
                </mxCell>
                <mxCell id="50" value="" style="curved=1;endArrow=classic;html=1;edgeStyle=orthogonalEdgeStyle;exitX=0;exitY=0.5;exitDx=0;exitDy=0;entryX=0;entryY=0.5;entryDx=0;entryDy=0;strokeWidth=6;" parent="1" edge="1">
                    <mxGeometry width="50" height="50" relative="1" as="geometry">
                        <mxPoint x="1547" y="671" as="sourcePoint"/>
                        <mxPoint x="1548" y="560" as="targetPoint"/>
                        <Array as="points">
                            <mxPoint x="1617" y="671"/>
                            <mxPoint x="1617" y="560"/>
                        </Array>
                    </mxGeometry>
                </mxCell>
                <mxCell id="53" value="&lt;font style=&quot;font-size: 24px;&quot;&gt;&lt;b&gt;sign&lt;/b&gt;&lt;/font&gt;" style="text;html=1;align=center;verticalAlign=middle;whiteSpace=wrap;rounded=0;" parent="1" vertex="1">
                    <mxGeometry x="195" y="590" width="60" height="30" as="geometry"/>
                </mxCell>
                <mxCell id="54" value="&lt;font style=&quot;font-size: 24px;&quot;&gt;&lt;b&gt;authenticate&lt;/b&gt;&lt;/font&gt;" style="text;html=1;align=center;verticalAlign=middle;whiteSpace=wrap;rounded=0;" parent="1" vertex="1">
                    <mxGeometry x="1465" y="590" width="140" height="30" as="geometry"/>
                </mxCell>
                <mxCell id="55" value="&lt;font style=&quot;font-size: 24px;&quot;&gt;&lt;b&gt;raw pointer:&lt;/b&gt;&lt;/font&gt;" style="text;html=1;align=center;verticalAlign=middle;whiteSpace=wrap;rounded=0;" vertex="1" parent="1">
                    <mxGeometry x="11" y="527" width="180" height="30" as="geometry"/>
                </mxCell>
                <mxCell id="57" value="&lt;font style=&quot;font-size: 24px;&quot;&gt;&lt;b&gt;signed pointer:&lt;/b&gt;&lt;/font&gt;" style="text;html=1;align=center;verticalAlign=middle;whiteSpace=wrap;rounded=0;" vertex="1" parent="1">
                    <mxGeometry x="20" y="650" width="180" height="30" as="geometry"/>
                </mxCell>
            </root>
        </mxGraphModel>
    </diagram>
</mxfile>